<?xml version="1.0" encoding="utf-8"?>
<!-- Generator: Adobe Illustrator 27.4.0, SVG Export Plug-In . SVG Version: 6.00 Build 0)  -->
<svg version="1.1" id="圖層_1" xmlns="http://www.w3.org/2000/svg" xmlns:xlink="http://www.w3.org/1999/xlink" x="0px" y="0px"
	 viewBox="0 0 24 24" style="enable-background:new 0 0 24 24;" xml:space="preserve">
<style type="text/css">
	.st0{fill:#FFFFFF;}
	.st1{fill:#F72F2F;}
</style>
<g id="grid_system">
</g>
<g id="_icons">
	<g>
		<circle class="st0" cx="12" cy="17.5" r="1.5"/>
		<path class="st1" d="M19.9,18.5l0.8-0.8c0.4-0.4,0.4-1,0-1.4c-0.4-0.4-1-0.4-1.4,0l-0.8,0.8l-0.8-0.8c-0.4-0.4-1-0.4-1.4,0
			c-0.4,0.4-0.4,1,0,1.4l0.8,0.8l-0.8,0.8c-0.4,0.4-0.4,1,0,1.4c0.2,0.2,0.5,0.3,0.7,0.3s0.5-0.1,0.7-0.3l0.8-0.8l0.8,0.8
			c0.2,0.2,0.5,0.3,0.7,0.3s0.5-0.1,0.7-0.3c0.4-0.4,0.4-1,0-1.4L19.9,18.5z"/>
		<path class="st0" d="M12,12.2c-1.4,0-2.7,0.6-3.6,1.6c-0.4,0.4-0.4,1,0,1.4c0.4,0.4,1,0.4,1.4,0c1.2-1.3,3.2-1.3,4.3,0
			c0.2,0.2,0.5,0.3,0.7,0.3s0.5-0.1,0.7-0.3c0.4-0.4,0.4-1,0-1.4C14.7,12.8,13.4,12.2,12,12.2z"/>
		<path class="st0" d="M16.8,12.2c0.2,0.2,0.4,0.3,0.7,0.3c0.3,0,0.5-0.1,0.7-0.3c0.4-0.4,0.4-1,0-1.4c-1.7-1.6-3.9-2.5-6.1-2.5
			S7.6,9.2,6,10.8c-0.4,0.4-0.4,1,0,1.4s1,0.4,1.4,0c1.3-1.3,3-2,4.8-2S15.4,10.9,16.8,12.2z"/>
		<path class="st0" d="M19.3,9.2c0.2,0.2,0.4,0.3,0.7,0.3c0.3,0,0.5-0.1,0.7-0.3c0.4-0.4,0.3-1-0.1-1.4c-2.4-2.2-5.5-3.4-8.7-3.4
			S5.8,5.5,3.3,7.7c-0.4,0.4-0.4,1-0.1,1.4c0.4,0.4,1,0.4,1.4,0.1C6.8,7.3,9.3,6.3,12,6.3S17.2,7.3,19.3,9.2z"/>
	</g>
</g>
</svg>
